<?xml version="1.0" encoding="UTF-8" standalone="no"?>
<svg
   xmlns:dc="http://purl.org/dc/elements/1.1/"
   xmlns:cc="http://creativecommons.org/ns#"
   xmlns:rdf="http://www.w3.org/1999/02/22-rdf-syntax-ns#"
   xmlns:svg="http://www.w3.org/2000/svg"
   xmlns="http://www.w3.org/2000/svg"
   viewBox="0 0 1815.84 616.58667"
   height="616.58667"
   width="1815.84"
   xml:space="preserve"
   id="svg100"
   version="1.1"><metadata
     id="metadata106"><rdf:RDF><cc:Work
         rdf:about=""><dc:format>image/svg+xml</dc:format><dc:type
           rdf:resource="http://purl.org/dc/dcmitype/StillImage" /><dc:title></dc:title></cc:Work></rdf:RDF></metadata><defs
     id="defs104" /><g
     transform="matrix(1.3333333,0,0,-1.3333333,0,616.58667)"
     id="g108"><g
       transform="scale(0.1)"
       id="g110"><path
         id="path112"
         style="fill:#ffffff;fill-opacity:1;fill-rule:nonzero;stroke:none"
         d="m 5491.33,982.141 c 0,-78.321 -57.88,-132.801 -140.74,-132.801 h -190.71 v 265.6 h 190.71 c 82.86,0 140.74,-53.34 140.74,-132.799 z m 2347.91,-538.02 c -111.22,0 -212.26,37.449 -271.27,95.348 -9.09,10.191 -13.64,22.679 -13.64,35.172 0,28.379 21.56,55.609 52.21,55.609 10.22,0 22.73,-3.391 31.78,-10.191 52.21,-44.27 122.61,-77.188 205.47,-77.188 122.56,0 165.72,64.699 165.72,118.039 0,179.34 -444.96,76.059 -444.96,349.6 0,124.86 111.22,215.67 267.89,215.67 94.21,0 190.67,-29.51 247.42,-81.72 10.22,-9.09 14.77,-22.7 14.77,-35.19 0,-28.38 -24.98,-52.22 -53.34,-52.22 -10.22,0 -21.56,3.4 -30.65,10.22 -55.63,40.87 -121.44,60.16 -187.29,60.16 -85.11,0 -143.03,-44.27 -143.03,-108.97 0,-156.632 444.96,-63.562 444.96,-346.19 0,-118.059 -81.74,-228.149 -286.04,-228.149 z m -585.91,311.008 c 0,-188.43 -105.55,-311.008 -316.69,-311.008 -212.26,0 -317.81,123.707 -317.81,309.859 v 413.17 c 0,29.52 24.94,54.48 57.88,54.48 29.49,0 54.47,-24.96 54.47,-54.48 V 757.398 c 0,-130.539 71.52,-213.41 205.46,-213.41 132.78,0 204.3,82.871 204.3,213.41 v 409.752 c 0,29.52 23.85,54.48 57.88,54.48 30.65,0 54.51,-24.96 54.51,-54.48 z M 6308.78,457.73 H 5969.4 c -40.86,0 -73.77,32.93 -73.77,73.77 v 635.65 c 0,29.52 24.94,54.48 57.89,54.48 29.48,0 54.46,-24.96 54.46,-54.48 V 557.609 h 300.8 c 27.27,0 48.83,-22.687 48.83,-48.789 0,-29.531 -21.56,-51.09 -48.83,-51.09 z m -943.43,291.711 h -205.47 v -242.89 c 0,-30.66 -24.98,-55.641 -56.75,-55.641 -30.65,0 -55.59,24.981 -55.59,55.641 v 634.489 c 0,40.87 32.9,73.79 73.77,73.79 h 244.04 c 155.51,0 241.75,-106.69 241.75,-232.689 0,-125.993 -88.54,-232.7 -241.75,-232.7 z M 8303.8,1667.19 H 4595.49 V 245.621 C 4595.49,109.961 4705.46,0 4841.11,0 h 3708.32 v 1421.57 c 0,135.65 -109.97,245.62 -245.63,245.62" /><path
         id="path114"
         style="fill:#ffffff;fill-opacity:1;fill-rule:nonzero;stroke:none"
         d="m 8945.07,4146.7 c -490.88,0 -888.82,-397.94 -888.82,-888.82 0,-490.88 397.94,-888.81 888.82,-888.81 490.88,0 888.81,397.93 888.81,888.81 0,490.88 -397.93,888.82 -888.81,888.82 z m 0,-355.54 c 294.05,0 533.28,-239.22 533.28,-533.28 0,-294.05 -239.23,-533.28 -533.28,-533.28 -294.06,0 -533.29,239.23 -533.29,533.28 0,294.06 239.23,533.28 533.29,533.28" /><path
         id="path116"
         style="fill:#ffffff;fill-opacity:1;fill-rule:nonzero;stroke:none"
         d="m 2892.81,2704.84 c -304.95,0 -553.05,248.09 -553.05,553.04 0,304.95 248.1,553.04 553.05,553.04 304.94,0 553.03,-248.09 553.03,-553.04 0,-304.95 -248.09,-553.04 -553.03,-553.04 z m 541.57,1386.64 v -144.57 c -153.06,124.84 -348.41,199.79 -561.33,199.79 -490.87,0 -888.81,-397.95 -888.81,-888.82 0,-490.88 397.94,-888.81 888.81,-888.81 212.92,0 408.27,74.94 561.33,199.78 v -144.56 h 327.49 v 1667.19 h -327.49" /><path
         id="path118"
         style="fill:#ffffff;fill-opacity:1;fill-rule:nonzero;stroke:none"
         d="m 11941.8,2704.84 c -304.9,0 -553,248.09 -553,553.04 0,304.95 248.1,553.04 553,553.04 305,0 553.1,-248.09 553.1,-553.04 0,-304.95 -248.1,-553.04 -553.1,-553.04 z m 541.6,1386.64 v -144.57 c -153.1,124.84 -348.4,199.79 -561.3,199.79 -490.9,0 -888.8,-397.95 -888.8,-888.82 0,-490.88 397.9,-888.81 888.8,-888.81 212.9,0 408.2,74.94 561.3,199.78 v -144.56 h 327.5 v 1667.19 h -327.5" /><path
         id="path120"
         style="fill:#ffffff;fill-opacity:1;fill-rule:nonzero;stroke:none"
         d="m 10416,3985.73 c -190.6,-121.98 -355.6,-337.69 -355.6,-720.27 v -841.17 h 355.6 v 841.17 0 c 0,553.04 570,522.84 570,522.84 v 354.9 0.53 c 0,0 -309.1,9.04 -570,-158" /><path
         id="path122"
         style="fill:#ffffff;fill-opacity:1;fill-rule:nonzero;stroke:none"
         d="m 5449.06,3968.95 c -148.55,111.59 -333.18,177.75 -533.28,177.75 -200.11,0 -384.74,-66.16 -533.29,-177.75 -215.87,-162.16 -355.53,-420.29 -355.53,-711.07 v -833.59 h 355.53 v 122.53 711.06 c 0,294.06 239.23,533.29 533.29,533.29 294.05,0 533.28,-239.23 533.28,-533.29 v -711.06 -122.53 h 355.53 v 833.59 c 0,290.78 -139.66,548.91 -355.53,711.07" /><path
         id="path124"
         style="fill:#ffffff;fill-opacity:1;fill-rule:nonzero;stroke:none"
         d="m 6950.17,2704.84 c -304.94,0 -553.03,248.1 -553.03,553.04 0,304.95 248.09,553.04 553.03,553.04 304.95,0 553.04,-248.09 553.04,-553.04 0,-304.94 -248.09,-553.04 -553.04,-553.04 z m 705.32,1919.59 c -90.43,0 -163.74,-73.31 -163.74,-163.75 v -513.77 c -153.06,124.84 -348.41,199.79 -561.32,199.79 -490.89,0 -888.82,-397.95 -888.82,-888.82 0,-490.88 397.93,-888.81 888.82,-888.81 212.91,0 408.26,74.95 561.32,199.78 v -144.56 h 327.48 v 2036.39 163.75 h -163.74" /><path
         id="path126"
         style="fill:#ffffff;fill-opacity:1;fill-rule:nonzero;stroke:none"
         d="m 869.063,2704.84 c -304.95,0 -553.04,248.1 -553.04,553.04 0,304.95 248.09,553.04 553.04,553.04 304.947,0 553.037,-248.09 553.037,-553.04 0,-304.94 -248.09,-553.04 -553.037,-553.04 z m 19.753,1441.86 c -212.914,0 -408.273,-74.95 -561.324,-199.79 v 144.57 H 0 v -2036.4 -163.74 h 163.742 c 90.438,0 163.75,73.31 163.75,163.74 v 513.77 c 153.051,-124.83 348.41,-199.78 561.324,-199.78 490.874,0 888.814,397.94 888.814,888.81 0,490.89 -397.94,888.82 -888.814,888.82" /><path
         id="path128"
         style="fill:#ffffff;fill-opacity:1;fill-rule:nonzero;stroke:none"
         d="m 13578,4088.6 v 265.42 l -109.4,-265.42 h -11.7 l -109.3,265.42 V 4088.6 h -40.9 v 320.83 h 62.7 l 93.4,-233.34 93.3,233.34 h 62.7 V 4088.6 Z m -414.2,282.91 V 4088.6 h -40.8 v 282.91 h -90.5 v 37.92 h 221.7 v -37.92 z m 0,0 V 4088.6 h -40.8 v 282.91 h -90.5 v 37.92 h 221.7 v -37.92 h -90.4" /></g></g></svg>