<?xml version="1.0" encoding="UTF-8" standalone="no"?>
<svg
   xmlns:dc="http://purl.org/dc/elements/1.1/"
   xmlns:cc="http://creativecommons.org/ns#"
   xmlns:rdf="http://www.w3.org/1999/02/22-rdf-syntax-ns#"
   xmlns:svg="http://www.w3.org/2000/svg"
   xmlns="http://www.w3.org/2000/svg"
   viewBox="0 0 2505.2534 366.66666"
   height="366.66666"
   width="2505.2534"
   xml:space="preserve"
   id="svg2"
   version="1.1"><metadata
     id="metadata8"><rdf:RDF><cc:Work
         rdf:about=""><dc:format>image/svg+xml</dc:format><dc:type
           rdf:resource="http://purl.org/dc/dcmitype/StillImage" /><dc:title></dc:title></cc:Work></rdf:RDF></metadata><defs
     id="defs6" /><g
     transform="matrix(1.3333333,0,0,-1.3333333,0,366.66667)"
     id="g10"><g
       transform="scale(0.1)"
       id="g12"><g
         transform="scale(1.10316)"
         id="g14"><path
           id="path16"
           style="fill:#100f0d;fill-opacity:1;fill-rule:nonzero;stroke:none"
           d="m 13510.6,1381.9 c 0,-71.43 -52.7,-121.12 -128.3,-121.12 h -174 v 242.25 h 174 c 75.6,0 128.3,-48.64 128.3,-121.13 z m 2141.6,-490.724 c -101.4,0 -193.6,34.156 -247.4,86.977 -8.3,9.302 -12.5,20.686 -12.5,32.077 0,25.88 19.7,50.72 47.6,50.72 9.4,0 20.8,-3.1 29,-9.3 47.6,-40.37 111.9,-70.395 187.4,-70.395 111.9,0 151.2,59.005 151.2,107.655 0,163.58 -405.8,69.38 -405.8,318.88 0,113.88 101.4,196.7 244.3,196.7 85.9,0 173.9,-26.9 225.7,-74.53 9.3,-8.29 13.4,-20.71 13.4,-32.1 0,-25.89 -22.8,-47.63 -48.6,-47.63 -9.3,0 -19.7,3.11 -28,9.32 -50.7,37.28 -110.8,54.87 -170.8,54.87 -77.7,0 -130.4,-40.37 -130.4,-99.38 0,-142.87 405.8,-57.98 405.8,-315.76 0,-107.682 -74.6,-208.104 -260.9,-208.104 z m -534.4,283.674 c 0,-171.86 -96.3,-283.674 -288.8,-283.674 -193.7,0 -289.9,112.844 -289.9,282.634 v 376.85 c 0,26.93 22.7,49.69 52.7,49.69 26.9,0 49.8,-22.76 49.8,-49.69 v -373.73 c 0,-119.08 65.2,-194.652 187.4,-194.652 121.1,0 186.3,75.572 186.3,194.652 v 373.73 c 0,26.93 21.7,49.69 52.8,49.69 27.9,0 49.7,-22.76 49.7,-49.69 z m -861.6,-271.256 h -309.4 c -37.3,0 -67.4,30.035 -67.4,67.289 v 579.777 c 0,26.93 22.8,49.69 52.9,49.69 26.9,0 49.6,-22.76 49.6,-49.69 V 994.696 h 274.3 c 25,0 44.6,-20.693 44.6,-44.499 0,-26.929 -19.6,-46.603 -44.6,-46.603 z m -860.4,266.066 h -187.5 V 948.122 c 0,-27.956 -22.7,-50.746 -51.7,-50.746 -27.9,0 -50.7,22.79 -50.7,50.746 v 578.718 c 0,37.28 30,67.31 67.3,67.31 h 222.6 c 141.8,0 220.5,-97.32 220.5,-212.25 0,-114.9 -80.8,-212.24 -220.5,-212.24 z m 2680.1,837.08 H 12693.5 V 710.123 c 0,-123.725 100.4,-224.019 224.1,-224.019 H 16300 V 1782.71 c 0,123.73 -100.3,224.03 -224.1,224.03" /></g><path
         id="path18"
         style="fill:#100f0d;fill-opacity:1;fill-rule:nonzero;stroke:none"
         d="m 9000.4,2269.31 c -493.92,0 -894.31,-400.4 -894.31,-894.31 0,-493.918 400.39,-894.309 894.31,-894.309 493.91,0 894.31,400.391 894.31,894.309 0,493.91 -400.4,894.31 -894.31,894.31 z m 0,-357.73 c 295.87,0 536.58,-240.71 536.58,-536.58 0,-295.87 -240.71,-536.578 -536.58,-536.578 -295.88,0 -536.58,240.708 -536.58,536.578 0,295.87 240.7,536.58 536.58,536.58" /><path
         id="path20"
         style="fill:#100f0d;fill-opacity:1;fill-rule:nonzero;stroke:none"
         d="m 2910.7,818.539 c -306.84,0 -556.46,249.621 -556.46,556.461 0,306.83 249.62,556.46 556.46,556.46 306.83,0 556.46,-249.63 556.46,-556.46 0,-306.84 -249.63,-556.461 -556.46,-556.461 z m 544.92,1395.211 v -145.46 c -154,125.61 -350.57,201.02 -564.79,201.02 -493.92,0 -894.32,-400.4 -894.32,-894.31 0,-493.918 400.4,-894.309 894.32,-894.309 214.22,0 410.79,75.411 564.79,201.02 V 536.25 h 329.52 v 1677.5 h -329.52" /><path
         id="path22"
         style="fill:#100f0d;fill-opacity:1;fill-rule:nonzero;stroke:none"
         d="m 12015.7,818.539 c -306.9,0 -556.5,249.621 -556.5,556.461 0,306.83 249.6,556.46 556.5,556.46 306.8,0 556.4,-249.63 556.4,-556.46 0,-306.84 -249.6,-556.461 -556.4,-556.461 z m 544.9,1395.211 v -145.46 c -154,125.61 -350.6,201.02 -564.8,201.02 -493.9,0 -894.3,-400.4 -894.3,-894.31 0,-493.918 400.4,-894.309 894.3,-894.309 214.2,0 410.8,75.411 564.8,201.02 V 536.25 h 329.5 v 1677.5 h -329.5" /><path
         id="path24"
         style="fill:#100f0d;fill-opacity:1;fill-rule:nonzero;stroke:none"
         d="m 10480.4,2107.35 c -191.8,-122.74 -357.7,-339.78 -357.7,-724.73 V 536.25 h 357.7 v 846.37 0 c 0,556.46 573.5,526.08 573.5,526.08 v 357.09 0.54 c 0,0 -310.9,9.1 -573.5,-158.98" /><path
         id="path26"
         style="fill:#100f0d;fill-opacity:1;fill-rule:nonzero;stroke:none"
         d="m 5482.77,2090.46 c -149.47,112.28 -335.25,178.85 -536.59,178.85 -201.34,0 -387.11,-66.57 -536.58,-178.85 C 4192.39,1927.3 4051.87,1667.57 4051.87,1375 V 536.25 H 4409.6 V 659.539 1375 c 0,295.87 240.71,536.59 536.58,536.59 295.88,0 536.59,-240.72 536.59,-536.59 V 659.539 536.25 H 5840.5 V 1375 c 0,292.57 -140.53,552.3 -357.73,715.46" /><path
         id="path28"
         style="fill:#100f0d;fill-opacity:1;fill-rule:nonzero;stroke:none"
         d="m 6993.16,818.539 c -306.83,0 -556.45,249.631 -556.45,556.461 0,306.83 249.62,556.46 556.45,556.46 306.84,0 556.47,-249.63 556.47,-556.46 0,-306.83 -249.63,-556.461 -556.47,-556.461 z M 7702.84,2750 c -90.99,0 -164.75,-73.77 -164.75,-164.76 v -516.95 c -154.01,125.61 -350.57,201.02 -564.79,201.02 -493.93,0 -894.32,-400.4 -894.32,-894.31 0,-493.918 400.39,-894.309 894.32,-894.309 214.22,0 410.78,75.411 564.79,201.02 V 536.25 H 7867.6 V 2585.24 2750 h -164.76" /><path
         id="path30"
         style="fill:#100f0d;fill-opacity:1;fill-rule:nonzero;stroke:none"
         d="m 874.438,818.539 c -306.833,0 -556.461,249.631 -556.461,556.461 0,306.83 249.628,556.46 556.461,556.46 306.832,0 556.462,-249.63 556.462,-556.46 0,-306.83 -249.63,-556.461 -556.462,-556.461 z m 19.878,1450.771 c -214.234,0 -410.8,-75.41 -564.8,-201.02 v 145.46 H 0 V 164.762 0 h 164.758 c 90.996,0 164.758,73.7617 164.758,164.762 v 516.949 c 154,-125.609 350.566,-201.02 564.8,-201.02 493.914,0 894.314,400.399 894.314,894.309 0,493.92 -400.4,894.31 -894.314,894.31" /><g
         transform="scale(1.1527)"
         id="g32"><path
           id="path34"
           style="fill:#100f0d;fill-opacity:1;fill-rule:nonzero;stroke:none"
           d="m 16265,1920.49 v 230.26 l -95,-230.26 h -10.1 l -94.9,230.26 v -230.26 h -35.4 v 278.33 h 54.4 l 80.9,-202.42 81.1,202.42 h 54.3 v -278.33 z m -359.4,245.44 v -245.44 h -35.4 v 245.44 h -78.5 v 32.89 h 192.3 v -32.89 z m 0,0 v -245.44 h -35.4 v 245.44 h -78.5 v 32.89 h 192.3 v -32.89 h -78.4" /></g></g></g></svg>