<?xml version="1.0" encoding="UTF-8" standalone="no"?>
<svg
   xmlns:dc="http://purl.org/dc/elements/1.1/"
   xmlns:cc="http://creativecommons.org/ns#"
   xmlns:rdf="http://www.w3.org/1999/02/22-rdf-syntax-ns#"
   xmlns:svg="http://www.w3.org/2000/svg"
   xmlns="http://www.w3.org/2000/svg"
   viewBox="0 0 1333.3333 1333.3333"
   height="1333.3333"
   width="1333.3333"
   xml:space="preserve"
   id="svg18"
   version="1.1"><metadata
     id="metadata24"><rdf:RDF><cc:Work
         rdf:about=""><dc:format>image/svg+xml</dc:format><dc:type
           rdf:resource="http://purl.org/dc/dcmitype/StillImage" /><dc:title></dc:title></cc:Work></rdf:RDF></metadata><defs
     id="defs22" /><g
     transform="matrix(1.3333333,0,0,-1.3333333,0,1333.3333)"
     id="g26"><g
       transform="scale(0.1)"
       id="g28"><path
         id="path30"
         style="fill:#ffffff;fill-opacity:1;fill-rule:nonzero;stroke:none"
         d="M 2081.7,69.4414 C 972.141,69.4414 69.4453,972.141 69.4453,2081.71 V 7918.3 c 0,1109.56 902.6957,2012.26 2012.2547,2012.26 h 5836.59 c 1109.57,0 2012.27,-902.7 2012.27,-2012.26 V 2081.71 C 9930.56,972.141 9027.86,69.4414 7918.29,69.4414 H 2081.7" /><path
         id="path32"
         style="fill:#100f0d;fill-opacity:1;fill-rule:nonzero;stroke:none"
         d="M 7918.29,10000 H 2081.71 C 932.012,10000 0,9067.99 0,7918.29 V 2081.71 C 0,932.012 932.012,0 2081.71,0 H 7918.29 C 9067.99,0 10000,932.012 10000,2081.71 v 5836.58 c 0,1149.7 -932.01,2081.71 -2081.71,2081.71 z m 0,-138.89 c 262.34,0 516.76,-51.35 756.19,-152.62 231.34,-97.84 439.12,-237.95 617.59,-416.42 178.47,-178.47 318.58,-386.25 416.42,-617.59 101.27,-239.43 152.62,-493.85 152.62,-756.19 V 2081.71 c 0,-262.34 -51.35,-516.76 -152.62,-756.19 C 9610.65,1094.18 9470.54,886.402 9292.07,707.93 9113.6,529.461 8905.82,389.352 8674.48,291.512 8435.05,190.242 8180.63,138.891 7918.29,138.891 H 2081.71 c -262.34,0 -516.76,51.351 -756.19,152.621 -231.34,97.84 -439.122,237.949 -617.594,416.418 -178.469,178.472 -318.574,386.25 -416.418,617.59 -101.27,239.43 -152.621,493.85 -152.621,756.19 v 5836.58 c 0,262.34 51.351,516.76 152.621,756.19 97.844,231.34 237.949,439.12 416.418,617.59 178.472,178.47 386.254,318.58 617.594,416.42 239.43,101.27 493.85,152.62 756.19,152.62 h 5836.58" /><path
         id="path34"
         style="fill:#100f0d;fill-opacity:1;fill-rule:nonzero;stroke:none"
         d="M 5470.05,8020.95 H 2755.84 v -6041.9 h 1620.48 c 150.9,0 273.21,122.31 273.21,273.22 v 1160.6 h 405.73 c 1983.83,0 2795.44,1118.07 2795.44,2425.76 0,1614.09 -1226.4,2182.32 -2380.65,2182.32" /></g></g></svg>