<?xml version="1.0" encoding="UTF-8" standalone="no"?>
<svg
   xmlns:dc="http://purl.org/dc/elements/1.1/"
   xmlns:cc="http://creativecommons.org/ns#"
   xmlns:rdf="http://www.w3.org/1999/02/22-rdf-syntax-ns#"
   xmlns:svg="http://www.w3.org/2000/svg"
   xmlns="http://www.w3.org/2000/svg"
   viewBox="0 0 1333.3333 1333.3333"
   height="1333.3333"
   width="1333.3333"
   xml:space="preserve"
   id="svg2"
   version="1.1"><metadata
     id="metadata8"><rdf:RDF><cc:Work
         rdf:about=""><dc:format>image/svg+xml</dc:format><dc:type
           rdf:resource="http://purl.org/dc/dcmitype/StillImage" /><dc:title></dc:title></cc:Work></rdf:RDF></metadata><defs
     id="defs6" /><g
     transform="matrix(1.3333333,0,0,-1.3333333,0,1333.3333)"
     id="g10"><g
       transform="scale(0.1)"
       id="g12"><path
         id="path14"
         style="fill:#ffffff;fill-opacity:1;fill-rule:nonzero;stroke:none"
         d="M 7918.29,0 H 2081.71 C 932.012,0 0,932.012 0,2081.71 V 7918.29 C 0,9067.99 932.012,10000 2081.71,10000 H 7918.29 C 9067.99,10000 10000,9067.99 10000,7918.29 V 2081.71 C 10000,932.012 9067.99,0 7918.29,0" /><path
         id="path16"
         style="fill:#100f0d;fill-opacity:1;fill-rule:nonzero;stroke:none"
         d="M 5470.05,8020.95 H 2755.84 v -6041.9 h 1620.48 c 150.9,0 273.21,122.31 273.21,273.22 v 1160.6 h 405.73 c 1983.83,0 2795.44,1118.07 2795.44,2425.76 0,1614.09 -1226.4,2182.32 -2380.65,2182.32" /></g></g></svg>