<?xml version="1.0" encoding="UTF-8" standalone="no"?>
<svg
   xmlns:dc="http://purl.org/dc/elements/1.1/"
   xmlns:cc="http://creativecommons.org/ns#"
   xmlns:rdf="http://www.w3.org/1999/02/22-rdf-syntax-ns#"
   xmlns:svg="http://www.w3.org/2000/svg"
   xmlns="http://www.w3.org/2000/svg"
   viewBox="0 0 1784.5867 366.66666"
   height="366.66666"
   width="1784.5867"
   xml:space="preserve"
   id="svg30"
   version="1.1"><metadata
     id="metadata36"><rdf:RDF><cc:Work
         rdf:about=""><dc:format>image/svg+xml</dc:format><dc:type
           rdf:resource="http://purl.org/dc/dcmitype/StillImage" /><dc:title></dc:title></cc:Work></rdf:RDF></metadata><defs
     id="defs34" /><g
     transform="matrix(1.3333333,0,0,-1.3333333,0,366.66667)"
     id="g38"><g
       transform="scale(0.1)"
       id="g40"><path
         id="path42"
         style="fill:#ffffff;fill-opacity:1;fill-rule:nonzero;stroke:none"
         d="m 9000.4,2269.31 c -493.92,0 -894.31,-400.4 -894.31,-894.31 0,-493.918 400.39,-894.309 894.31,-894.309 493.91,0 894.31,400.391 894.31,894.309 0,493.91 -400.4,894.31 -894.31,894.31 z m 0,-357.73 c 295.87,0 536.58,-240.71 536.58,-536.58 0,-295.87 -240.71,-536.578 -536.58,-536.578 -295.88,0 -536.58,240.708 -536.58,536.578 0,295.87 240.7,536.58 536.58,536.58" /><path
         id="path44"
         style="fill:#ffffff;fill-opacity:1;fill-rule:nonzero;stroke:none"
         d="m 2910.7,818.539 c -306.84,0 -556.46,249.621 -556.46,556.461 0,306.83 249.62,556.46 556.46,556.46 306.83,0 556.46,-249.63 556.46,-556.46 0,-306.84 -249.63,-556.461 -556.46,-556.461 z m 544.92,1395.211 v -145.46 c -154,125.61 -350.57,201.02 -564.79,201.02 -493.92,0 -894.32,-400.4 -894.32,-894.31 0,-493.918 400.4,-894.309 894.32,-894.309 214.22,0 410.79,75.411 564.79,201.02 V 536.25 h 329.52 v 1677.5 h -329.52" /><path
         id="path46"
         style="fill:#ffffff;fill-opacity:1;fill-rule:nonzero;stroke:none"
         d="m 12015.7,818.539 c -306.9,0 -556.5,249.621 -556.5,556.461 0,306.83 249.6,556.46 556.5,556.46 306.8,0 556.4,-249.63 556.4,-556.46 0,-306.84 -249.6,-556.461 -556.4,-556.461 z m 544.9,1395.211 v -145.46 c -154,125.61 -350.6,201.02 -564.8,201.02 -493.9,0 -894.3,-400.4 -894.3,-894.31 0,-493.918 400.4,-894.309 894.3,-894.309 214.2,0 410.8,75.411 564.8,201.02 V 536.25 h 329.5 v 1677.5 h -329.5" /><path
         id="path48"
         style="fill:#ffffff;fill-opacity:1;fill-rule:nonzero;stroke:none"
         d="m 10480.4,2107.35 c -191.8,-122.74 -357.7,-339.78 -357.7,-724.73 V 536.25 h 357.7 v 846.37 0 c 0,556.46 573.5,526.08 573.5,526.08 v 357.09 0.54 c 0,0 -310.9,9.1 -573.5,-158.98" /><path
         id="path50"
         style="fill:#ffffff;fill-opacity:1;fill-rule:nonzero;stroke:none"
         d="m 5482.77,2090.46 c -149.47,112.28 -335.25,178.85 -536.59,178.85 -201.34,0 -387.11,-66.57 -536.58,-178.85 C 4192.39,1927.3 4051.87,1667.57 4051.87,1375 V 536.25 H 4409.6 V 659.539 1375 c 0,295.87 240.71,536.59 536.58,536.59 295.88,0 536.59,-240.72 536.59,-536.59 V 659.539 536.25 H 5840.5 V 1375 c 0,292.57 -140.53,552.3 -357.73,715.46" /><path
         id="path52"
         style="fill:#ffffff;fill-opacity:1;fill-rule:nonzero;stroke:none"
         d="m 6993.16,818.539 c -306.83,0 -556.45,249.631 -556.45,556.461 0,306.83 249.62,556.46 556.45,556.46 306.84,0 556.47,-249.63 556.47,-556.46 0,-306.83 -249.63,-556.461 -556.47,-556.461 z M 7702.84,2750 c -90.99,0 -164.75,-73.77 -164.75,-164.76 v -516.95 c -154.01,125.61 -350.57,201.02 -564.79,201.02 -493.93,0 -894.32,-400.4 -894.32,-894.31 0,-493.918 400.39,-894.309 894.32,-894.309 214.22,0 410.78,75.411 564.79,201.02 V 536.25 H 7867.6 V 2585.24 2750 h -164.76" /><path
         id="path54"
         style="fill:#ffffff;fill-opacity:1;fill-rule:nonzero;stroke:none"
         d="m 874.438,818.539 c -306.833,0 -556.461,249.631 -556.461,556.461 0,306.83 249.628,556.46 556.461,556.46 306.832,0 556.462,-249.63 556.462,-556.46 0,-306.83 -249.63,-556.461 -556.462,-556.461 z m 19.878,1450.771 c -214.234,0 -410.8,-75.41 -564.8,-201.02 v 145.46 H 0 V 164.762 0 h 164.758 c 90.996,0 164.758,73.7617 164.758,164.762 v 516.949 c 154,-125.609 350.566,-201.02 564.8,-201.02 493.914,0 894.314,400.399 894.314,894.309 0,493.92 -400.4,894.31 -894.314,894.31" /><path
         id="path56"
         style="fill:#ffffff;fill-opacity:1;fill-rule:nonzero;stroke:none"
         d="m 13234.4,2451.2 h -54.4 v -71.5 h 54.4 c 16.3,0 34.2,15.55 34.2,34.98 0,20.98 -17.9,36.52 -34.2,36.52 z m 31.1,-167.86 -49,74.61 h -36.5 v -74.61 h -22.5 v 188.84 h 76.9 c 31.9,0 57.5,-22.53 57.5,-57.5 0,-41.97 -37.3,-55.96 -48.2,-55.96 l 50.5,-75.38 z m -45.9,239.36 c -80,0 -144.5,-63.73 -144.5,-144.55 0,-79.27 64.5,-144.55 144.5,-144.55 80.1,0 144.6,65.28 144.6,144.55 0,80.82 -64.5,144.55 -144.6,144.55 z m 0,-309.31 c -90.9,0 -164.7,73.83 -164.7,164.76 0,91.7 73.8,164.76 164.7,164.76 91.7,0 164.8,-73.06 164.8,-164.76 0,-90.93 -73.1,-164.76 -164.8,-164.76" /></g></g></svg>